<svg id="Layer_1" data-name="Layer 1" xmlns="http://www.w3.org/2000/svg" viewBox="0 0 359.29 221.86"><defs><style>.cls-1,.cls-5{fill:#214bb5;}.cls-1{opacity:0.54;}.cls-2{fill:#f9b4b2;opacity:0.21;}.cls-3{fill:#141b41;stroke:#774d95;stroke-width:6px;}.cls-3,.cls-4,.cls-5,.cls-7,.cls-8,.cls-9{stroke-miterlimit:10;}.cls-4,.cls-6{fill:#131e47;}.cls-4,.cls-9{stroke:#f9b4b2;stroke-width:10px;}.cls-5,.cls-7,.cls-8{stroke:#eee7e0;}.cls-5{stroke-width:5px;}.cls-7,.cls-8,.cls-9{fill:none;}.cls-7{stroke-width:8px;}.cls-8{stroke-width:7px;}</style></defs><title>j-wills-Idared</title><circle class="cls-1" cx="277.04" cy="110.49" r="76.52"/><circle class="cls-2" cx="110.77" cy="111.42" r="105.77"/><path class="cls-3" d="M518.57,370.2H549.9a56.75,56.75,0,1,1,0,27.75H517.8a79.77,79.77,0,1,1,0-27.74h0.77Z" transform="translate(-327.4 -273.31)"/><circle class="cls-4" cx="277.53" cy="110.76" r="29.34"/><circle class="cls-5" cx="111.84" cy="110.76" r="56.75"/><circle class="cls-6" cx="111.84" cy="110.76" r="29.34"/><path class="cls-7" d="M556.29,446.18" transform="translate(-327.4 -273.31)"/><path class="cls-7" d="M666.48,431.59a78.51,78.51,0,0,1-110.19,14.59" transform="translate(-327.4 -273.31)"/><path class="cls-7" d="M675.31,350.5a78.59,78.59,0,0,1-8.83,81.09" transform="translate(-327.4 -273.31)"/><path class="cls-7" d="M651.9,321.4A78.91,78.91,0,0,1,664,332.85" transform="translate(-327.4 -273.31)"/><path class="cls-7" d="M651.9,321.4c-29.2-22.37-68.09-20.89-95.65,1" transform="translate(-327.4 -273.31)"/><path class="cls-8" d="M450.88,372.91c0.06,14.21-4.73,21.25-21.28,22.34" transform="translate(-327.4 -273.31)"/><path class="cls-8" d="M592.83,376.37c0,4.92,3.55,19.67,7.35,15.35,5.17-5.89,4.84-5.89,9.21,0,3.42,4.57,7.4-10.29,7.4-15.41" transform="translate(-327.4 -273.31)"/><path class="cls-9" d="M438.33,278.31a105.81,105.81,0,0,1,86.85,45.27" transform="translate(-327.4 -273.31)"/><path class="cls-9" d="M438.33,278.31" transform="translate(-327.4 -273.31)"/><path class="cls-9" d="M332.4,384.24a105.81,105.81,0,0,1,46.06-87.4" transform="translate(-327.4 -273.31)"/><path class="cls-9" d="M438.33,490.17A105.81,105.81,0,0,1,332.4,384.24" transform="translate(-327.4 -273.31)"/><path class="cls-9" d="M438.33,490.17" transform="translate(-327.4 -273.31)"/><path class="cls-9" d="M526.26,443.32a106.15,106.15,0,0,1-57.49,42.41" transform="translate(-327.4 -273.31)"/></svg>